<svg width="118" height="83" viewBox="0 0 118 83" fill="none" xmlns="http://www.w3.org/2000/svg">
<path d="M2.33667 1.39722H52.8664V51.9797H2.33667V26.8338V1.39722Z" fill="#6A5C53" fill-opacity="0.5"/>
<ellipse cx="26.7252" cy="38.7054" rx="11.8292" ry="9.64141" fill="#F9F8F9"/>
<rect x="54.3268" y="1.39722" width="48.7772" height="50.5825" fill="#F5A124"/>
<rect width="14.896" height="43.596" transform="translate(103.104 1.39722)" fill="#3D232C"/>
<rect x="103.104" y="1.39722" width="14.896" height="8.94276" fill="#3D232C"/>
<rect width="14.896" height="43.596" transform="translate(54.3268 1.39722)" fill="#3D232C"/>
<rect x="54.3268" y="1.39722" width="14.896" height="8.94276" fill="#3D232C"/>
<ellipse cx="76.5247" cy="18.7237" rx="2.33663" ry="2.23569" fill="#3E242F"/>
<ellipse cx="96.0941" cy="18.7237" rx="2.33663" ry="2.23569" fill="#3E242F"/>
<path d="M88.5138 43.3698C87.7029 43.5362 86.8667 43.5614 86.0437 43.4654C81.5724 42.9436 78.7131 42.2079 76.5392 39.7088C75.054 38.0015 75.0102 35.5515 75.6605 33.3893L76.9372 29.1443C78.0758 25.3587 81.5556 22.7674 85.5124 22.7588L86.1374 22.7574C89.6902 22.7497 92.9209 24.8321 94.3842 28.0731L96.4256 32.5944C96.8137 33.4538 97.0908 34.3701 97.106 35.312C97.1803 39.9236 94.6677 42.1069 88.5138 43.3698Z" fill="white" fill-opacity="0.6"/>
<path d="M87.8731 41.8548C84.557 42.7574 78.2773 32.8035 82.5124 32.8879C83.382 32.9052 84.3398 32.9119 85.313 32.9115C89.2412 32.91 92.4131 36.7414 90.1586 39.9565C89.4984 40.898 88.7339 41.6205 87.8731 41.8548Z" fill="#3D232C"/>
<ellipse cx="15.9183" cy="26.8282" rx="2.48267" ry="2.23569" fill="#3E242F"/>
<path d="M5.30044 4.87297L15.8976 4.87297L5.30044 14.6226L5.30044 4.87297Z" fill="white"/>
<path d="M49.2197 4.97048L49.0097 14.7147L38.6209 4.77729L49.2197 4.97048Z" fill="#FFFEFE"/>
<ellipse cx="36.0718" cy="26.8282" rx="2.48267" ry="2.23569" fill="#3D232C"/>
<ellipse cx="15.9183" cy="26.8282" rx="2.48267" ry="2.23569" fill="#3D232C"/>
<path d="M32.7474 35.9058C31.566 37.7054 29.8323 40.1116 26.7784 40.2438C23.7245 40.3759 20.4743 37.494 20.3832 35.5667C20.2921 33.6394 23.3946 33.3965 26.4485 33.2644C29.5024 33.1322 33.9289 34.1063 32.7474 35.9058Z" fill="#3D232C"/>
<path d="M25.857 42.3058C26.0086 41.3113 27.4419 41.3113 27.5935 42.3058C27.6746 42.8375 27.2631 43.3164 26.7253 43.3164C26.1875 43.3164 25.776 42.8375 25.857 42.3058Z" fill="#3D232C"/>
<path d="M8.47187 33.1108C8.49469 33.0368 8.57361 32.9939 8.64816 33.0149L15.8528 35.0478C15.9274 35.0689 15.9693 35.1459 15.9465 35.2199C15.9237 35.294 15.8448 35.3369 15.7702 35.3159L8.56554 33.2829C8.491 33.2619 8.44906 33.1848 8.47187 33.1108Z" fill="#F9F8F9"/>
<path d="M37.7138 35.4851C37.6941 35.4103 37.7392 35.335 37.8145 35.3169L45.1007 33.5681C45.1759 33.55 45.2528 33.5961 45.2725 33.6709C45.2921 33.7458 45.247 33.8211 45.1717 33.8391L37.8855 35.588C37.8103 35.606 37.7334 35.56 37.7138 35.4851Z" fill="#F9F8F9"/>
<path d="M38.2979 37.7207C38.2782 37.6459 38.3233 37.5706 38.3986 37.5525L42.0417 36.6781L45.6848 35.8037C45.76 35.7856 45.8369 35.8317 45.8566 35.9065C45.8762 35.9814 45.8311 36.0567 45.7559 36.0747L38.4696 37.8236C38.3944 37.8416 38.3175 37.7956 38.2979 37.7207Z" fill="#F9F8F9"/>
<path d="M7.40124 36.0593C7.4187 35.9839 7.49419 35.9359 7.56984 35.9519L15.0232 37.5337C15.0988 37.5497 15.146 37.6238 15.1285 37.6992C15.1111 37.7745 15.0356 37.8226 14.9599 37.8065L7.5066 36.2248C7.43094 36.2087 7.38377 36.1346 7.40124 36.0593Z" fill="#F9F8F9"/>
<path d="M7.01867 38.3765C7.03223 38.3004 7.10504 38.2489 7.1813 38.2613L15.2096 39.5706C15.2859 39.583 15.3367 39.6548 15.3232 39.7308C15.3096 39.8069 15.2368 39.8585 15.1606 39.8461L7.13223 38.5368C7.05596 38.5243 7.00512 38.4526 7.01867 38.3765Z" fill="#F9F8F9"/>
<path d="M46.6491 38.984C46.6583 39.0606 46.6034 39.1296 46.5267 39.1379L38.4344 40.0192C38.3576 40.0276 38.288 39.9722 38.2789 39.8955C38.2698 39.8188 38.3246 39.7499 38.4014 39.7415L46.4936 38.8603C46.5704 38.8519 46.64 38.9073 46.6491 38.984Z" fill="#F9F8F9"/>
<path d="M6.45844 41.0538C6.46804 40.9772 6.53802 40.9222 6.61474 40.931L16.0403 42.0127C16.1171 42.0216 16.1715 42.0908 16.1619 42.1674C16.1523 42.244 16.0823 42.299 16.0056 42.2902L6.57995 41.2085C6.50324 41.1996 6.44883 41.1304 6.45844 41.0538Z" fill="#F9F8F9"/>
<path d="M47.1594 42.0588C47.1617 42.136 47.101 42.2002 47.0239 42.2023L37.5342 42.4611C37.4571 42.4632 37.3927 42.4024 37.3904 42.3252C37.3881 42.2481 37.4488 42.1838 37.5259 42.1817L47.0156 41.9229C47.0927 41.9208 47.1571 41.9817 47.1594 42.0588Z" fill="#F9F8F9"/>
<path d="M19.35 77.2593H14.64V67.5393H14.37L12.6 77.2593H7.77L6.09 67.5393H5.79V77.2593H1.14L1.77 58.6293H8.52L10.2 68.7093H10.44L12.06 58.6293H18.72L19.35 77.2593ZM27.1985 77.2593H22.0985V58.6293H27.1985V77.2593ZM43.5281 77.2593H38.5181L37.9481 74.3193H34.4081L33.8381 77.2593H29.0681L32.4881 58.6293H40.1081L43.5281 77.2593ZM37.3781 70.8093L36.3281 64.1493H36.1181L35.0681 70.8093H37.3781ZM50.3395 71.1393C50.3395 71.7593 50.4695 72.2193 50.7295 72.5193C50.9895 72.8193 51.4095 72.9693 51.9895 72.9693C52.5895 72.9693 52.9995 72.8293 53.2195 72.5493C53.4595 72.2493 53.5795 71.7693 53.5795 71.1093V58.6293H58.7395V71.4093C58.7395 73.5493 58.1495 75.1093 56.9695 76.0893C55.8095 77.0693 54.0895 77.5593 51.8095 77.5593C49.5495 77.5593 47.8595 77.0793 46.7395 76.1193C45.6395 75.1393 45.0895 73.5893 45.0895 71.4693V58.6293H50.3395V71.1393ZM75.2386 67.5393C75.2386 74.0193 72.6786 77.2593 67.5586 77.2593H61.3786V58.6293H67.6786C70.4186 58.6293 72.3586 59.3993 73.4986 60.9393C74.6586 62.4593 75.2386 64.6593 75.2386 67.5393ZM67.4686 72.9393C68.5286 72.9393 69.2086 72.5693 69.5086 71.8293C69.8286 71.0693 69.9886 69.8093 69.9886 68.0493C69.9886 66.2693 69.8186 65.0093 69.4786 64.2693C69.1586 63.5293 68.4586 63.1593 67.3786 63.1593H66.4786V72.9393H67.4686ZM78.2796 60.5793C79.4396 59.0793 81.3296 58.3293 83.9496 58.3293C86.5696 58.3293 88.4396 59.0693 89.5596 60.5493C90.6996 62.0293 91.2696 64.4393 91.2696 67.7793C91.2696 71.0993 90.6896 73.5593 89.5296 75.1593C88.3696 76.7593 86.4896 77.5593 83.8896 77.5593C81.2896 77.5593 79.4196 76.7693 78.2796 75.1893C77.1396 73.6093 76.5696 71.1593 76.5696 67.8393C76.5696 64.4993 77.1396 62.0793 78.2796 60.5793ZM86.1096 67.7793C86.1096 65.9393 85.9596 64.6993 85.6596 64.0593C85.3796 63.3993 84.7896 63.0693 83.8896 63.0693C83.0096 63.0693 82.4396 63.3993 82.1796 64.0593C81.9196 64.6993 81.7896 65.9293 81.7896 67.7493V68.4693C81.7896 70.4093 81.9296 71.6893 82.2096 72.3093C82.5096 72.9093 83.0996 73.2093 83.9796 73.2093C84.8796 73.2093 85.4596 72.9193 85.7196 72.3393C85.9796 71.7593 86.1096 70.5593 86.1096 68.7393V67.7793ZM104.142 63.1593H100.662V77.2593H95.5322V63.1593H91.8422L92.1422 58.6293H104.442L104.142 63.1593ZM115.697 77.2593H105.617V58.6293H115.997L115.697 63.2193H110.747V66.0093H115.037V69.9693H110.747V73.0593H115.997L115.697 77.2593Z" fill="black"/>
</svg>
